<mxfile host="app.diagrams.net" agent="Mozilla/5.0 (Windows NT 10.0; Win64; x64) AppleWebKit/537.36 (KHTML, like Gecko) Chrome/136.0.0.0 Safari/537.36 Edg/136.0.0.0" version="27.0.4">
  <diagram id="aFwColqB8UJonStbLBbu" name="Page-1">
    <mxGraphModel dx="1042" dy="616" grid="1" gridSize="10" guides="1" tooltips="1" connect="1" arrows="1" fold="1" page="1" pageScale="1" pageWidth="850" pageHeight="1100" math="0" shadow="0">
      <root>
        <mxCell id="0" />
        <mxCell id="1" parent="0" />
        <mxCell id="4xPLjZZW4wL1uZ0aWVui-8" value="" style="rounded=0;whiteSpace=wrap;html=1;" vertex="1" parent="1">
          <mxGeometry x="490" y="210" width="160" height="170" as="geometry" />
        </mxCell>
        <mxCell id="4xPLjZZW4wL1uZ0aWVui-1" value="" style="rounded=0;whiteSpace=wrap;html=1;" vertex="1" parent="1">
          <mxGeometry x="290" y="210" width="160" height="170" as="geometry" />
        </mxCell>
        <mxCell id="4xPLjZZW4wL1uZ0aWVui-6" style="rounded=0;orthogonalLoop=1;jettySize=auto;html=1;exitX=1;exitY=1;exitDx=0;exitDy=0;entryX=0;entryY=0;entryDx=0;entryDy=0;" edge="1" parent="1" source="4xPLjZZW4wL1uZ0aWVui-2" target="4xPLjZZW4wL1uZ0aWVui-3">
          <mxGeometry relative="1" as="geometry" />
        </mxCell>
        <mxCell id="4xPLjZZW4wL1uZ0aWVui-2" value="A1" style="ellipse;whiteSpace=wrap;html=1;aspect=fixed;" vertex="1" parent="1">
          <mxGeometry x="310" y="235" width="40" height="40" as="geometry" />
        </mxCell>
        <mxCell id="4xPLjZZW4wL1uZ0aWVui-7" value="" style="edgeStyle=none;rounded=0;orthogonalLoop=1;jettySize=auto;html=1;" edge="1" parent="1" source="4xPLjZZW4wL1uZ0aWVui-3" target="4xPLjZZW4wL1uZ0aWVui-5">
          <mxGeometry relative="1" as="geometry" />
        </mxCell>
        <mxCell id="4xPLjZZW4wL1uZ0aWVui-3" value="A2" style="ellipse;whiteSpace=wrap;html=1;aspect=fixed;" vertex="1" parent="1">
          <mxGeometry x="385" y="330" width="40" height="40" as="geometry" />
        </mxCell>
        <mxCell id="4xPLjZZW4wL1uZ0aWVui-22" style="edgeStyle=none;rounded=0;orthogonalLoop=1;jettySize=auto;html=1;exitX=1;exitY=0.5;exitDx=0;exitDy=0;entryX=0;entryY=0.5;entryDx=0;entryDy=0;" edge="1" parent="1" source="4xPLjZZW4wL1uZ0aWVui-5" target="4xPLjZZW4wL1uZ0aWVui-10">
          <mxGeometry relative="1" as="geometry" />
        </mxCell>
        <mxCell id="4xPLjZZW4wL1uZ0aWVui-5" value="A3" style="ellipse;whiteSpace=wrap;html=1;aspect=fixed;" vertex="1" parent="1">
          <mxGeometry x="390" y="235" width="40" height="40" as="geometry" />
        </mxCell>
        <mxCell id="4xPLjZZW4wL1uZ0aWVui-9" style="rounded=0;orthogonalLoop=1;jettySize=auto;html=1;exitX=1;exitY=1;exitDx=0;exitDy=0;entryX=0;entryY=0;entryDx=0;entryDy=0;" edge="1" source="4xPLjZZW4wL1uZ0aWVui-10" target="4xPLjZZW4wL1uZ0aWVui-12" parent="1">
          <mxGeometry relative="1" as="geometry" />
        </mxCell>
        <mxCell id="4xPLjZZW4wL1uZ0aWVui-20" value="" style="edgeStyle=none;rounded=0;orthogonalLoop=1;jettySize=auto;html=1;" edge="1" parent="1" source="4xPLjZZW4wL1uZ0aWVui-10" target="4xPLjZZW4wL1uZ0aWVui-13">
          <mxGeometry relative="1" as="geometry" />
        </mxCell>
        <mxCell id="4xPLjZZW4wL1uZ0aWVui-10" value="A4" style="ellipse;whiteSpace=wrap;html=1;aspect=fixed;" vertex="1" parent="1">
          <mxGeometry x="510" y="235" width="40" height="40" as="geometry" />
        </mxCell>
        <mxCell id="4xPLjZZW4wL1uZ0aWVui-11" value="" style="edgeStyle=none;rounded=0;orthogonalLoop=1;jettySize=auto;html=1;" edge="1" source="4xPLjZZW4wL1uZ0aWVui-12" target="4xPLjZZW4wL1uZ0aWVui-13" parent="1">
          <mxGeometry relative="1" as="geometry" />
        </mxCell>
        <mxCell id="4xPLjZZW4wL1uZ0aWVui-12" value="A6" style="ellipse;whiteSpace=wrap;html=1;aspect=fixed;" vertex="1" parent="1">
          <mxGeometry x="585" y="330" width="40" height="40" as="geometry" />
        </mxCell>
        <mxCell id="4xPLjZZW4wL1uZ0aWVui-13" value="A5" style="ellipse;whiteSpace=wrap;html=1;aspect=fixed;" vertex="1" parent="1">
          <mxGeometry x="590" y="235" width="40" height="40" as="geometry" />
        </mxCell>
        <mxCell id="4xPLjZZW4wL1uZ0aWVui-14" value="" style="rounded=0;whiteSpace=wrap;html=1;" vertex="1" parent="1">
          <mxGeometry x="680" y="210" width="160" height="170" as="geometry" />
        </mxCell>
        <mxCell id="4xPLjZZW4wL1uZ0aWVui-15" style="rounded=0;orthogonalLoop=1;jettySize=auto;html=1;exitX=1;exitY=1;exitDx=0;exitDy=0;entryX=0;entryY=0;entryDx=0;entryDy=0;" edge="1" source="4xPLjZZW4wL1uZ0aWVui-16" target="4xPLjZZW4wL1uZ0aWVui-18" parent="1">
          <mxGeometry relative="1" as="geometry" />
        </mxCell>
        <mxCell id="4xPLjZZW4wL1uZ0aWVui-25" value="" style="edgeStyle=none;rounded=0;orthogonalLoop=1;jettySize=auto;html=1;" edge="1" parent="1" source="4xPLjZZW4wL1uZ0aWVui-16" target="4xPLjZZW4wL1uZ0aWVui-19">
          <mxGeometry relative="1" as="geometry" />
        </mxCell>
        <mxCell id="4xPLjZZW4wL1uZ0aWVui-16" value="A7" style="ellipse;whiteSpace=wrap;html=1;aspect=fixed;" vertex="1" parent="1">
          <mxGeometry x="700" y="235" width="40" height="40" as="geometry" />
        </mxCell>
        <mxCell id="4xPLjZZW4wL1uZ0aWVui-18" value="A9" style="ellipse;whiteSpace=wrap;html=1;aspect=fixed;" vertex="1" parent="1">
          <mxGeometry x="775" y="330" width="40" height="40" as="geometry" />
        </mxCell>
        <mxCell id="4xPLjZZW4wL1uZ0aWVui-24" value="" style="edgeStyle=none;rounded=0;orthogonalLoop=1;jettySize=auto;html=1;" edge="1" parent="1" source="4xPLjZZW4wL1uZ0aWVui-19" target="4xPLjZZW4wL1uZ0aWVui-18">
          <mxGeometry relative="1" as="geometry" />
        </mxCell>
        <mxCell id="4xPLjZZW4wL1uZ0aWVui-19" value="A8" style="ellipse;whiteSpace=wrap;html=1;aspect=fixed;" vertex="1" parent="1">
          <mxGeometry x="780" y="235" width="40" height="40" as="geometry" />
        </mxCell>
        <mxCell id="4xPLjZZW4wL1uZ0aWVui-23" style="edgeStyle=none;rounded=0;orthogonalLoop=1;jettySize=auto;html=1;exitX=1;exitY=0.5;exitDx=0;exitDy=0;entryX=0.125;entryY=0.265;entryDx=0;entryDy=0;entryPerimeter=0;" edge="1" parent="1" source="4xPLjZZW4wL1uZ0aWVui-13" target="4xPLjZZW4wL1uZ0aWVui-14">
          <mxGeometry relative="1" as="geometry" />
        </mxCell>
        <mxCell id="4xPLjZZW4wL1uZ0aWVui-26" value="User Location &amp;amp; Nearby Restaurant Discovery" style="rounded=0;whiteSpace=wrap;html=1;" vertex="1" parent="1">
          <mxGeometry x="290" y="140" width="160" height="50" as="geometry" />
        </mxCell>
        <mxCell id="4xPLjZZW4wL1uZ0aWVui-27" value="Seat Schema &amp;amp; Availability Management" style="rounded=0;whiteSpace=wrap;html=1;" vertex="1" parent="1">
          <mxGeometry x="490" y="140" width="160" height="50" as="geometry" />
        </mxCell>
        <mxCell id="4xPLjZZW4wL1uZ0aWVui-28" value="Customer Booking Confirmation" style="rounded=0;whiteSpace=wrap;html=1;" vertex="1" parent="1">
          <mxGeometry x="680" y="140" width="160" height="50" as="geometry" />
        </mxCell>
        <mxCell id="4xPLjZZW4wL1uZ0aWVui-29" value="T1" style="text;html=1;align=center;verticalAlign=middle;resizable=0;points=[];autosize=1;strokeColor=none;fillColor=none;" vertex="1" parent="1">
          <mxGeometry x="350" y="210" width="40" height="30" as="geometry" />
        </mxCell>
        <mxCell id="4xPLjZZW4wL1uZ0aWVui-30" value="T2" style="text;html=1;align=center;verticalAlign=middle;resizable=0;points=[];autosize=1;strokeColor=none;fillColor=none;" vertex="1" parent="1">
          <mxGeometry x="550" y="210" width="40" height="30" as="geometry" />
        </mxCell>
        <mxCell id="4xPLjZZW4wL1uZ0aWVui-31" value="T3" style="text;html=1;align=center;verticalAlign=middle;resizable=0;points=[];autosize=1;strokeColor=none;fillColor=none;" vertex="1" parent="1">
          <mxGeometry x="740" y="210" width="40" height="30" as="geometry" />
        </mxCell>
      </root>
    </mxGraphModel>
  </diagram>
</mxfile>
